<?xml version="1.0" encoding="UTF-8"?> <svg xmlns="http://www.w3.org/2000/svg" viewBox="-179 217.8 481.9 161.5"> <g fill="#2FB457"> <path d="M-126.9 261c-4.5 3.5-24.8 16.6-27 20.4-6.7 11.1 3.3 19.9-.1 22.8-3.4 2.9-9.8-10.8-8.9-16.5 3.4-23.8 42.7-22.5 57.6-39.4 6-6.8 12.8-23 11.2-29.2-1.8-6.6-5.7 21.3-32.8 41.9z"></path> <path d="M-127.1 237.4c1.9 6.2-.1 12.2-4.5 13.6-4.4 1.4-9.6-2.4-11.4-8.5-1.9-6 .1-12.2 4.5-13.6 4.3-1.4 9.4 2.3 11.4 8.5zM-128.1 287.8c4.5-2.8 4.8 20.1 3.6 25.3-2.6 12.6-8.5 31.8-42.4 38.9-6.9 1.4-12.2 6.5-11.4 10.3.8 3.8 6.3.4 15.1-2.5 60.2-19.9 45.3-93.7 29.9-83.2-18.5 12.6 22.9 51 22.3 76.6-.5 19-6.4 22.3-3.6 25 2.9 2.8 28.4-18.7-9.4-71.5-1.7-2.7-10.9-14.7-4.1-18.9z"></path> </g> <g fill="#2FB457"> <path d="M301.3 344.5c2-.1-.6-.1-3-.3l-2.1.3h5.1zM289.8 344.4l-5.8.3 4.1-.1c4.7.1-.6.3-2.4.4 7.8-.1 3-.3 4.1-.6zM278.6 344.7c-3.6 0-2.6.1-1.1.3.2-.2 2.6-.2 1.1-.3zM50.4 343.9c1 0 2.3.1 2 .1 1.3-.1 1.5-.1-2-.1z"></path> <path d="M52.6 343.9h-.8.8c0 .1 0 .1 0 0z"></path> <path d="M126.6 346.2c4.1-.1 6.4 0 10.3-.1l2.1.3c4.3-.1 1.9-.3 4.9-.3 3.9.1 12.1 0 13.8 0 1.3.1-1.6.1-2.3.3 4.9-.1 4.7-.3 10.8-.3h.1c14.7-.4 33.4-.3 49.8-.5-1.1 0-.9 0-1.3-.1 17.4-.1 37.2-.1 50.9-.6-9.3 0-25.1-.3-34.7.1-3.5-.1-8.9.1-10.4-.1-13.6-.1-19.1.3-32.2.3-1.9 0-1-.1-1.5-.3l10.3-.1-6.3-.1c2.8-.1 9.4 0 10.2-.3-9.1.3-23.5 0-31.4.4h12.7c1.9.1 4.9.1 4.8.3-12.6.4-23 .1-36 .3-3.3 0-7.7 0-8.2-.1 2.1 0 .5-.1 2.3-.1-4.5.1-.5.4-7 .4l.9-.4c-2.6.4-8-.1-12.8.1-1.6-.1 1.4-.3 5-.3-4.1-.1-4.5.1-7.8.1l3.1-.4c-3.5.3-6.3 0-8.3-.1-.3.1 1.6.4-2.8.3-1.9 0-.9-.1-1.4-.1-.3.1-1.8.3-4.8.3-.5-.1 1.9-.1 2.1-.3H106c-3.9.1.3.1-2.1.3-5.9-.1-.6-.4-2.8-.6l12.6-.3-8.5.1c.5-.1-5.8-.3-1.3-.4-8.5-.1-18.9 0-27 .1 1.1 0 2.6.1 2.4.1-4.3.1-3.8-.1-4.7-.1-3.1.1-2.8.3-4.7.5-6.4-.1-7.4-.1-13-.4l.4.3c-3.9-.1-4.5.1-8.7 0-.3 0 1.4-.1 2.6-.1-3.8.1-3.4-.1-7-.1l2.9-.3c-2.9 0-7.2.1-5.7-.1-5 .3-14 .1-20.2.3l.4-.1c-3.3.3-11.9 0-14.8.3l-.5-.1L0 344c-2.9 0-1.9-.3-2.1-.3-6.4 0-11.6.1-15.7 0-1 .3-7.8.4-13.2.4-26-.1-54.1.1-78.2.4-3.6 0-8.7.3-13.2.4 5.5 0 6-.1 11.6-.1 4.1.1 5.7.4 9.2.5l-1.8-.3c5.5-.1 3.8.1 8.2-.1l-.1.4c1.5-.1 5.4 0 7 0l1.4-.3c3.5.1 5.8.1 6.8.4l-.4-.3c1.3.1 13.5 0 9.3.4 1 0 1.9-.1 4.1-.1l.4.3c3.1 0 6.8-.1 7.7 0-1.8 0-2.3.1-2.9.3 13.5 0 2.9-.8 14.8-.8l-.1.1 3-.1 3.1.1c4.3-.5 16.8 0 24-.3 2.9 0 6.5.3 11.9.3l-.4-.3c4.4.3 20.6.4 24.6.9 4.1-.1-.4 0-.4-.3 8-.3 8.5.1 12.7.3 4.9-.1-3.8-.1-1.1-.3 7.5.1 6.2-.3 15.5-.1.9.1-2.4.1-3.4.1 6.5-.3 18.7-.1 28.5-.1l40.6.4.3-.1c5.4.3 11.3 0 17.6.1l-2.7.3zM204.3 344.2l-1-.1-6 .1c2.5.1 3.7 0 7 0zM203.1 344.7h3.1-5z"></path> <path d="M127.4 344.4h.7l11.5-.1zM50.9 343.7c1.3-.1 3.1 0 4.5-.1l-5.3.1h.8zM-.5 342.9c-2 .4-4 0-1.4.3 3.3-.1.5-.2 1.4-.3zM-12.4 343.4c1.9 0 2.9 0 3.9-.1-2.4-.2-2.6 0-3.9.1z"></path> </g> <g fill="#004D56"> <path d="M-86.6 332.3l16.8-61.1h8.3l17.6 61.1h-8l-5.3-18.1h-16.2l-4.9 18.1h-8.3zm15.1-25.9h12.2l-6-21.8h-.1l-6.1 21.8zM-7 285.1v49.3c0 10.7-7.9 14.7-16.1 14.7-9.7 0-17.6-4.8-17.6-15h8c.4 4.5 4.1 7.2 8.8 7.2 4.8 0 9.1-.6 9.1-8.5v-6.4h-.2c-1.5 4.3-4.9 6.9-9.7 6.9-11.7 0-16.6-11.9-16.6-24.5 0-15.3 5.5-24.5 16.6-24.5 6.7 0 8.8 2.6 10.7 7.5h.1V285H-7v.1zm-8.1 18.3c0-7.9-3.8-11.4-9.1-11.4s-9.1 3.3-9.1 17.2c0 12.4 4.4 16.2 9.4 16.2s8.5-4 8.5-12.1v-9.9h.3zM3.1 332.3V285h7.2v5.3h.1c2-4.5 5.5-6 10.8-6v8.3c-7.9.1-10.1 5.3-10.1 11.6v28.3h-8v-.2zM42.6 333.2c-11.8 0-18.2-9.4-18.2-24.5 0-15 6.4-24.5 18.2-24.5s18.2 9.4 18.2 24.5c.1 15-6.4 24.5-18.2 24.5zm0-41.9c-6.4 0-10.2 4.5-10.2 17.4S36.2 326 42.6 326s10.2-4.5 10.2-17.4c0-12.7-3.8-17.3-10.2-17.3zM97.8 271.2h8.3l-17.2 61.1H81l-17.2-61.1H72l13 48.3 12.8-48.3zM109.8 271.2h8v8.5h-8v-8.5zm0 61.1V285h8v47.3h-8zM146.4 298.8c-.4-4.3-2.4-6.8-7-6.8-3.9 0-5.9 2-5.9 5.4 0 9.4 20.6 3.9 20.6 21.1 0 9.4-5.8 14.7-14.5 14.7s-15-6.9-15-15.3h7.5c.1 4.5 3 7.5 7.8 7.5 4 0 6.3-2.4 6.3-6.3 0-10.2-20.6-4.3-20.6-21 0-8.7 5.4-13.8 14-13.8 8.5 0 14.2 6.2 14.2 14.6h-7.4v-.1zM161.3 271.2h8v8.5h-8v-8.5zm0 61.1V285h8v47.3h-8zM195.9 333.2c-11.8 0-18.2-9.4-18.2-24.5 0-15 6.4-24.5 18.2-24.5 11.8 0 18.2 9.4 18.2 24.5 0 15-6.4 24.5-18.2 24.5zm0-41.9c-6.4 0-10.2 4.5-10.2 17.4s3.8 17.4 10.2 17.4c6.4 0 10.2-4.5 10.2-17.4-.2-12.8-3.8-17.4-10.2-17.4zM222 332.3V285h7.3v5.9h.1c2.5-4.9 5.4-6.8 11.2-6.8 8.5 0 13.5 5.8 13.5 15v33.1h-8v-30.6c0-6.8-2.4-9.8-7-9.8-4.4 0-8.8 3.1-8.8 9.8v30.6H222v.1z"></path> </g> </svg> 